<svg id="Capa_1" data-name="Capa 1" xmlns="http://www.w3.org/2000/svg" width="2010.68" height="511.7" viewBox="0 0 2010.68 511.7">
  <g>
    <path d="M1378.5,364.41h0c-54.09-62.67-149.12-69-211.12-14.14L1043.73,459.81,920.29,350.28A148.23,148.23,0,0,0,711,362.76c-.48.55-1,1.1-1.45,1.66h0a148.24,148.24,0,0,0,15,208.54L840.12,673.5a20.33,20.33,0,0,0,28.06-1.29l175.55-183.64,175.84,183.55a20.42,20.42,0,0,0,28.16,1.29L1363.45,572.9A148,148,0,0,0,1378.5,364.41Zm-37,170.46L1231.05,639.21l-150.5-165.43,112.67-100a109.33,109.33,0,0,1,154.35,8.9q2.85,3.21,5.45,6.63h0c33.9,44.2,28.9,107.38-11.51,145.56Z" transform="translate(-673.67 -312.92)" style="fill: #e20715"/>
    <path d="M1065.65,573.7l-28-28a10.29,10.29,0,0,0-14.55,0h0l-28,28a10.29,10.29,0,0,0,0,14.55h0l28,28a10.29,10.29,0,0,0,14.55,0h0l28-28a10.28,10.28,0,0,0,0-14.55Zm-35.27,31L1006.64,581l23.74-23.74L1054.11,581Z" transform="translate(-673.67 -312.92)" style="fill: #e20715"/>
    <path d="M1067.26,661.4,1045.81,640a7.88,7.88,0,0,0-11.15,0l-21.45,21.45a7.9,7.9,0,0,0,0,11.15l21.45,21.4a7.88,7.88,0,0,0,11.15,0l21.45-21.45C1070,669.51,1069.76,664.65,1067.26,661.4Zm-27,23.76L1022.05,667l18.19-18.19L1058.42,667Z" transform="translate(-673.67 -312.92)" style="fill: #868686"/>
    <path d="M887.87,690.5l41.86-41.86a9.3,9.3,0,0,1,13.15,0l41.85,41.86a9.3,9.3,0,0,1,0,13.15l-41.86,41.86a9.3,9.3,0,0,1-13.15,0l-41.86-41.86A9.3,9.3,0,0,1,887.87,690.5Z" transform="translate(-673.67 -312.92)" style="fill: #868686"/>
    <path d="M1092.73,702l39.82-39.82a10.74,10.74,0,0,1,15.2,0L1187.54,702a10.74,10.74,0,0,1,0,15.2L1147.73,757a10.74,10.74,0,0,1-15.2,0l-39.8-39.81a10.75,10.75,0,0,1,0-15.2Z" transform="translate(-673.67 -312.92)" style="fill: #868686"/>
    <rect x="1081.4" y="603.83" width="30.87" height="30.87" rx="5.21" transform="translate(-790.3 644.04) rotate(-45)" style="fill: #e20715"/>
    <rect x="1013.31" y="719.49" width="29.1" height="29.1" rx="4.76" transform="translate(-891.66 628.88) rotate(-45)" style="fill: #e20715"/>
    <rect x="1033.23" y="771.57" width="45.7" height="45.7" rx="5.1" transform="translate(-926.09 666.52) rotate(-45)" style="fill: #e20715"/>
    <path d="M1591.37,391.29a14.06,14.06,0,0,1,10.21,4.44,16.27,16.27,0,0,1,4.14,10.92,15.39,15.39,0,0,1-1.14,6,16,16,0,0,1-3,4.79,14.06,14.06,0,0,1-10.21,4.44h-75.48v50.29h57.35a13.1,13.1,0,0,1,5.64,1.27,14.43,14.43,0,0,1,4.63,3.45,16.8,16.8,0,0,1,3.09,5.07,16,16,0,0,1,1.14,6,14.75,14.75,0,0,1-4.23,10.57,14,14,0,0,1-4.63,3.1,14.35,14.35,0,0,1-5.64,1.13h-57.35v53.82a15.39,15.39,0,0,1-1.14,6,14.74,14.74,0,0,1-3.16,4.79,14.53,14.53,0,0,1-10.34,4.3,13.52,13.52,0,0,1-5.71-1.2,15.36,15.36,0,0,1-4.57-3.17,14.52,14.52,0,0,1-3.09-4.72,15.58,15.58,0,0,1-1.14-6V406a17,17,0,0,1,.81-5,14.34,14.34,0,0,1,2.48-4.72,13.29,13.29,0,0,1,4.43-3.52,14.84,14.84,0,0,1,6.78-1.41Z" transform="translate(-673.67 -312.92)" style="fill: #868686"/>
    <path d="M1606.49,506.11a60.69,60.69,0,0,1,5.72-26.14,69.33,69.33,0,0,1,15.52-21.34,75.33,75.33,0,0,1,78.52-14.44A72.52,72.52,0,0,1,1729,458.63,68.89,68.89,0,0,1,1744.33,480,61.38,61.38,0,0,1,1750,506.1V556a14.37,14.37,0,0,1-1.28,6.06,15.31,15.31,0,0,1-3.54,4.93,17.47,17.47,0,0,1-5.34,3.38,17.09,17.09,0,0,1-6.55,1.27,15.41,15.41,0,0,1-15.36-11.41,75.3,75.3,0,0,1-18.59,9.58,62.82,62.82,0,0,1-21,3.52,73.83,73.83,0,0,1-50.59-19.72,69,69,0,0,1-15.51-21.41A61,61,0,0,1,1606.49,506.11Zm32.67,0a33.45,33.45,0,0,0,3.09,14.16,37.18,37.18,0,0,0,8.48,11.7,41.14,41.14,0,0,0,42.91,7.89A38.9,38.9,0,0,0,1706,532a36.88,36.88,0,0,0,8.28-11.69,34,34,0,0,0,3-14.16,34.52,34.52,0,0,0-3-14.3A36,36,0,0,0,1706,480.2a40,40,0,0,0-12.42-7.82,41.12,41.12,0,0,0-42.91,7.82,36.54,36.54,0,0,0-8.43,11.62A33.73,33.73,0,0,0,1639.16,506.11Z" transform="translate(-673.67 -312.92)" style="fill: #868686"/>
    <path d="M2088.61,506.11a61.58,61.58,0,0,1,5.63-26.14,69.27,69.27,0,0,1,15.25-21.34,72.06,72.06,0,0,1,22.43-14.44,72.36,72.36,0,0,1,77.17,14.44,68.76,68.76,0,0,1,15.1,21.34,62.29,62.29,0,0,1,5.55,26.13V556a14.54,14.54,0,0,1-1.26,6.06A15.39,15.39,0,0,1,2225,567a17,17,0,0,1-5.26,3.38,16.55,16.55,0,0,1-6.44,1.27,15,15,0,0,1-9.77-3.24,15.48,15.48,0,0,1-5.33-8.17,73.56,73.56,0,0,1-18.29,9.58,60.77,60.77,0,0,1-20.65,3.52,70.87,70.87,0,0,1-27.32-5.28,71.89,71.89,0,0,1-22.43-14.44,69,69,0,0,1-15.25-21.41A61.67,61.67,0,0,1,2088.61,506.11Zm32.13,0a33.89,33.89,0,0,0,3,14.16,37.11,37.11,0,0,0,8.33,11.7,39.59,39.59,0,0,0,12.21,7.89,38.59,38.59,0,0,0,15,2.89,39.15,39.15,0,0,0,15-2.89,38.49,38.49,0,0,0,12.2-7.89,36.69,36.69,0,0,0,8.14-11.69,35.25,35.25,0,0,0,0-28.46,36,36,0,0,0-8.14-11.62,39.86,39.86,0,0,0-42.09-7.82,39.87,39.87,0,0,0-12.29,7.82,36.33,36.33,0,0,0-8.37,11.61,34.21,34.21,0,0,0-3,14.3Z" transform="translate(-673.67 -312.92)" style="fill: #868686"/>
    <path d="M2274.9,506.11c.1,0,.15,0,.15.14a31.53,31.53,0,0,0,2.87,13,39.08,39.08,0,0,0,7.94,11.55,41.36,41.36,0,0,0,11.87,8.38,35.12,35.12,0,0,0,14.66,3.38,40.7,40.7,0,0,0,13.83-1.76,44.54,44.54,0,0,0,13.22-7,60.46,60.46,0,0,1,5.37-3.59,20.67,20.67,0,0,1,6.2-2.46,16.28,16.28,0,0,1,6.88.07,19.31,19.31,0,0,1,7.71,4,13.49,13.49,0,0,1,3.85,5,13.9,13.9,0,0,1,1.21,6.06,16.2,16.2,0,0,1-1.51,6.34,18.29,18.29,0,0,1-4.31,5.85,63,63,0,0,1-22.29,13.52,79.34,79.34,0,0,1-27.13,4.65A78,78,0,0,1,2287,568.1,74.42,74.42,0,0,1,2263.73,554a66.55,66.55,0,0,1-15.72-21.2,60.85,60.85,0,0,1-5.74-26.28l.15-.28h-.15a61.82,61.82,0,0,1,5.74-26.42,66.93,66.93,0,0,1,15.72-21.37,74.65,74.65,0,0,1,23.28-14.3,77.13,77.13,0,0,1,28.42-5.21,82.87,82.87,0,0,1,27.13,4.44,60.69,60.69,0,0,1,22.29,13.31,21.58,21.58,0,0,1,4.38,5.92,15,15,0,0,1,1.59,6.27,13.22,13.22,0,0,1-1.28,6.06,14.8,14.8,0,0,1-4.08,5.14,18.07,18.07,0,0,1-7.56,4,15.37,15.37,0,0,1-6.88,0,21.91,21.91,0,0,1-6.2-2.54,60.46,60.46,0,0,1-5.37-3.59,42,42,0,0,0-13.22-6.83,43.35,43.35,0,0,0-13.83-1.62,37.21,37.21,0,0,0-14.51,3.45A40.49,40.49,0,0,0,2278,492.78a31.23,31.23,0,0,0-2.95,13.17Z" transform="translate(-673.67 -312.92)" style="fill: #868686"/>
    <path d="M2386.49,401.73a17.12,17.12,0,0,1,1.5-7.08,18.13,18.13,0,0,1,4-5.72,19.16,19.16,0,0,1,6-3.84,19,19,0,0,1,14.48,0,20.24,20.24,0,0,1,6.06,3.84,17.45,17.45,0,0,1,4.09,5.72,17.12,17.12,0,0,1,1.5,7.08,16.05,16.05,0,0,1-1.5,6.85,17.76,17.76,0,0,1-4.09,5.65,20.12,20.12,0,0,1-6.06,3.84,19,19,0,0,1-14.48,0,19,19,0,0,1-6-3.84,18.27,18.27,0,0,1-4-5.65A16,16,0,0,1,2386.49,401.73Zm32.9,155a13.92,13.92,0,0,1-1.23,5.86,15.17,15.17,0,0,1-3.32,4.69,15.62,15.62,0,0,1-5,3.17,16.28,16.28,0,0,1-12.12,0,16.43,16.43,0,0,1-5-3.17,14.46,14.46,0,0,1-3.39-4.69,13.92,13.92,0,0,1-1.23-5.86V458.17a13.09,13.09,0,0,1,1.3-5.73,16.57,16.57,0,0,1,3.46-4.76,15.93,15.93,0,0,1,5.05-3.24,16.31,16.31,0,0,1,6.21-1.17,15.42,15.42,0,0,1,6,1.17,15.21,15.21,0,0,1,4.91,3.24,14.93,14.93,0,0,1,3.25,4.76,14.29,14.29,0,0,1,1.16,5.73Z" transform="translate(-673.67 -312.92)" style="fill: #868686"/>
    <path d="M2439.79,506.11a62.77,62.77,0,0,1,5.5-26.13,69.45,69.45,0,0,1,14.91-21.34,70.25,70.25,0,0,1,21.93-14.44,70.55,70.55,0,0,1,53.56,0A68.84,68.84,0,0,1,2572.33,480a63.53,63.53,0,0,1,5.43,26.13V556a14.87,14.87,0,0,1-1.23,6.06,15.27,15.27,0,0,1-3.4,4.93,16.8,16.8,0,0,1-5.14,3.38,15.83,15.83,0,0,1-6.3,1.27,14.47,14.47,0,0,1-9.55-3.24,15.55,15.55,0,0,1-5.21-8.17,71.32,71.32,0,0,1-17.88,9.58,58.15,58.15,0,0,1-20.19,3.52,68,68,0,0,1-26.71-5.28,70.25,70.25,0,0,1-21.93-14.44,68.84,68.84,0,0,1-14.91-21.41A62.91,62.91,0,0,1,2439.79,506.11Zm31.41,0a34.52,34.52,0,0,0,3,14.16,37.31,37.31,0,0,0,8.11,11.69,38.5,38.5,0,0,0,11.94,7.89,36.89,36.89,0,0,0,14.62,2.89A37.81,37.81,0,0,0,2535.5,532a36.66,36.66,0,0,0,8-11.69,35.35,35.35,0,0,0,2.89-14.16,35.8,35.8,0,0,0-10.89-25.92,38.12,38.12,0,0,0-11.94-7.82,38.42,38.42,0,0,0-29.24,0,39,39,0,0,0-12,7.82,36.36,36.36,0,0,0-8.11,11.62,34.88,34.88,0,0,0-3,14.3Z" transform="translate(-673.67 -312.92)" style="fill: #868686"/>
    <path d="M2627.28,516.53q-5.9-2.53-12.18-5.57a52.78,52.78,0,0,1-11.5-7.47,36.7,36.7,0,0,1-8.55-10.64,30.56,30.56,0,0,1-3.32-14.78,37.28,37.28,0,0,1,3.42-16.13,36.41,36.41,0,0,1,9.51-12.4,42.77,42.77,0,0,1,14.44-7.89,58.23,58.23,0,0,1,18.34-2.75,80.44,80.44,0,0,1,11.91.92,59.13,59.13,0,0,1,11.7,3,38.58,38.58,0,0,1,9.93,5.35,22.65,22.65,0,0,1,6.71,8,16,16,0,0,1,1.44,8.95,13.6,13.6,0,0,1-3.08,7.25,13.39,13.39,0,0,1-6.71,4.37,11.08,11.08,0,0,1-7.94-.7q-2.87-1.83-5.27-3.24a34.48,34.48,0,0,0-4.93-2.39,28.19,28.19,0,0,0-5.34-1.48,37.61,37.61,0,0,0-6.36-.49q-8.89,0-13.48,2.46a8,8,0,0,0-4.59,7.54,6.11,6.11,0,0,0,1.71,4.44,16,16,0,0,0,4.59,3.09,50,50,0,0,0,7.12,2.68q4.17,1.28,9.1,2.82a128,128,0,0,1,15.4,5.92,53.53,53.53,0,0,1,12.87,8.24,37.08,37.08,0,0,1,8.83,11.48,34.76,34.76,0,0,1,3.29,15.64,36.64,36.64,0,0,1-3.49,15.85,40,40,0,0,1-9.65,12.89,45.71,45.71,0,0,1-14.72,8.67,52.84,52.84,0,0,1-18.55,3.17,80.81,80.81,0,0,1-13.35-1.2,59,59,0,0,1-13.69-4.08,52.08,52.08,0,0,1-12.25-7.47,34.46,34.46,0,0,1-9-11.34q-3.42-6.76-2.12-12a12.7,12.7,0,0,1,5.41-8,14.58,14.58,0,0,1,10-2q5.9.71,11.5,6.06a22.89,22.89,0,0,0,4.11,4,32.19,32.19,0,0,0,5.48,3.38,31.48,31.48,0,0,0,6.5,2.32,31.16,31.16,0,0,0,7.32.85,25.32,25.32,0,0,0,6.43-.77,19.43,19.43,0,0,0,5.34-2.18,11.84,11.84,0,0,0,3.7-3.38,7.64,7.64,0,0,0,1.37-4.51q0-3-3-5.43a37.76,37.76,0,0,0-7.32-4.58,78.57,78.57,0,0,0-9-3.73Z" transform="translate(-673.67 -312.92)" style="fill: #868686"/>
    <path d="M1852.2,444.89q-4.21-4.31-11.92-4.3H1840a69.2,69.2,0,0,0-27.55,5.57,73.7,73.7,0,0,0-17,10.14V455a13.25,13.25,0,1,0-26.49,0v52.56c-.06,1.18-.17,2.35-.17,3.55v45.5a14.1,14.1,0,0,0,1.28,6,15,15,0,0,0,3.43,4.72,16.72,16.72,0,0,0,5.07,3.17,16.31,16.31,0,0,0,6.21,1.2,14.19,14.19,0,0,0,5.85-1.2,15.5,15.5,0,0,0,4.71-3.17,15.08,15.08,0,0,0,3.21-4.72,14.73,14.73,0,0,0,1.21-6V510.65a36.63,36.63,0,0,1,3.28-15.36,41.89,41.89,0,0,1,8.7-12.57,40.17,40.17,0,0,1,12.77-8.45,39.42,39.42,0,0,1,15.49-3.1h.29a16.31,16.31,0,0,0,6.21-1.2,16.82,16.82,0,0,0,5.14-3.24,15.06,15.06,0,0,0,3.5-4.86,14.23,14.23,0,0,0,1.29-6.06A15,15,0,0,0,1852.2,444.89Z" transform="translate(-673.67 -312.92)" style="fill: #868686"/>
    <path d="M2072.86,490a2.72,2.72,0,0,1-.08-.63,46.37,46.37,0,0,0-5.26-19.58,54.3,54.3,0,0,0-12.79-16.06,60.38,60.38,0,0,0-18.48-10.85,64,64,0,0,0-22.63-3.94,65.49,65.49,0,0,0-23.5,4.23,62.64,62.64,0,0,0-19.36,11.55,63.29,63.29,0,0,0-19.2-11.55,64.17,64.17,0,0,0-23.34-4.23,63.43,63.43,0,0,0-22.68,4.06,65.53,65.53,0,0,0-13.13,6.77,12.14,12.14,0,0,0-23.28,4.85h0V556.66a12.4,12.4,0,0,0,1.43,5.85,14.58,14.58,0,0,0,3.9,4.72,20.62,20.62,0,0,0,5.66,3.17,18.89,18.89,0,0,0,6.69,1.2,17.49,17.49,0,0,0,12-4.3,13.64,13.64,0,0,0,4.92-10.62V490.47a17.35,17.35,0,0,1,2-8.17,22.07,22.07,0,0,1,5.42-6.69,25.62,25.62,0,0,1,8-4.51,28.54,28.54,0,0,1,9.64-1.62,29.06,29.06,0,0,1,9.56,1.55,25.39,25.39,0,0,1,7.81,4.3,20.72,20.72,0,0,1,5.27,6.64,19.58,19.58,0,0,1,2.15,8.38V556.7a12.4,12.4,0,0,0,1.43,5.85,14.58,14.58,0,0,0,3.9,4.72,20.62,20.62,0,0,0,5.66,3.17,18.89,18.89,0,0,0,6.69,1.2,17.49,17.49,0,0,0,12-4.3,13.63,13.63,0,0,0,4.86-10.64V490.91a18.18,18.18,0,0,1,2-8.31,21.55,21.55,0,0,1,5.42-6.83,26.66,26.66,0,0,1,8-4.58,28.29,28.29,0,0,1,9.72-1.69,28.6,28.6,0,0,1,9.4,1.55,26.34,26.34,0,0,1,7.89,4.3,20.54,20.54,0,0,1,5.42,6.55,20.83,20.83,0,0,1,2.31,8.31v66.5a12.41,12.41,0,0,0,1.44,5.85,15.06,15.06,0,0,0,3.82,4.72,19.58,19.58,0,0,0,12.43,4.37,17.58,17.58,0,0,0,6.53-1.2,18.64,18.64,0,0,0,5.34-3.17,14.58,14.58,0,0,0,3.67-4.72,13,13,0,0,0,1.35-5.85V490.64A2.51,2.51,0,0,0,2072.86,490Z" transform="translate(-673.67 -312.92)" style="fill: #868686"/>
    <path d="M1654.88,727a32.21,32.21,0,0,0,5.2,9.54,35.26,35.26,0,0,0,17.47,11.86,37.46,37.46,0,0,0,11.13,1.6q14.68,0,23.1-7.58a19.51,19.51,0,0,1,8.13-3.51,15.86,15.86,0,0,1,7.27.56,12.58,12.58,0,0,1,4.35,2.59,17.6,17.6,0,0,1,3.2,3.94,16.2,16.2,0,0,1,2.07,4.84,13.91,13.91,0,0,1,.29,5.26,16,16,0,0,1-1.71,5.26,14.45,14.45,0,0,1-4.06,4.7,58.56,58.56,0,0,1-7.13,5.4A47.2,47.2,0,0,1,1715,776a67.53,67.53,0,0,1-11.69,3.16,81.22,81.22,0,0,1-14.61,1.19,67.27,67.27,0,0,1-26.52-5.26,68.58,68.58,0,0,1-36.36-35.64,65.31,65.31,0,0,1,0-52.1,67.94,67.94,0,0,1,14.69-21.26,69.53,69.53,0,0,1,21.67-14.31,69.38,69.38,0,0,1,52.83-.07,71.18,71.18,0,0,1,21.67,14.1,66.33,66.33,0,0,1,20.46,46.82,13.76,13.76,0,0,1-4.22,10.35q-4.22,4-11.05,4Zm70.44-25.26a31,31,0,0,0-5-10.38,33.91,33.91,0,0,0-8.13-7.86,36.34,36.34,0,0,0-10.46-4.88,43.93,43.93,0,0,0-12.33-1.68,40.88,40.88,0,0,0-12.33,1.82,38.45,38.45,0,0,0-10.41,5,32.78,32.78,0,0,0-7.93,7.79,32.1,32.1,0,0,0-4.85,10.17Z" transform="translate(-673.67 -312.92)" style="fill: #e20715"/>
    <path d="M1901.87,715.6a35.78,35.78,0,0,0,2.5,13.41,33.88,33.88,0,0,0,6.88,10.88,31.92,31.92,0,0,0,10.39,7.3,31.4,31.4,0,0,0,12.88,2.67,27.47,27.47,0,0,0,21.93-10.18,34.23,34.23,0,0,0,5.94-11,42.51,42.51,0,0,0,2.09-13.47V663.27a14.6,14.6,0,0,1,1.21-5.9,14.9,14.9,0,0,1,3.31-4.84,16.25,16.25,0,0,1,4.73-3.26,13.87,13.87,0,0,1,5.67-1.19,13.51,13.51,0,0,1,5.6,1.19,14.75,14.75,0,0,1,4.59,3.23,14.46,14.46,0,0,1,3,4.84,16.27,16.27,0,0,1,1.08,5.9v51.52a73.13,73.13,0,0,1-4.38,25.41,65.53,65.53,0,0,1-12.14,20.8,57.47,57.47,0,0,1-18.75,14.11,54.87,54.87,0,0,1-23.88,5.19,57.77,57.77,0,0,1-24.22-5.12,62.28,62.28,0,0,1-19.63-14,66.58,66.58,0,0,1-13.22-20.63,65.37,65.37,0,0,1-4.86-25.13V663.17a15.68,15.68,0,0,1,4.25-10.74,14.75,14.75,0,0,1,4.59-3.23,13.79,13.79,0,0,1,5.73-1.19,14,14,0,0,1,5.66,1.19,15.43,15.43,0,0,1,4.72,3.23,14.56,14.56,0,0,1,3.17,4.84,15.31,15.31,0,0,1,1.15,5.9Z" transform="translate(-673.67 -312.92)" style="fill: #e20715"/>
    <path d="M2005.52,713.38a62.17,62.17,0,0,1,5.52-26,69.14,69.14,0,0,1,15-21.26,70.67,70.67,0,0,1,22-14.38,71.44,71.44,0,0,1,53.81,0,69.79,69.79,0,0,1,21.88,14.36,68.49,68.49,0,0,1,14.82,21.26,62.76,62.76,0,0,1,5.45,26V763a14.73,14.73,0,0,1-1.24,6,15.4,15.4,0,0,1-3.42,4.91,16.8,16.8,0,0,1-5.16,3.37,16.13,16.13,0,0,1-6.32,1.26,14.58,14.58,0,0,1-9.59-3.23,15.47,15.47,0,0,1-5.23-8.14,72.3,72.3,0,0,1-17.95,9.54,58.86,58.86,0,0,1-20.27,3.51A68.71,68.71,0,0,1,2048,775a70.5,70.5,0,0,1-22-14.38,68.82,68.82,0,0,1-15-21.33A62.15,62.15,0,0,1,2005.52,713.38Zm31.53,0a34.24,34.24,0,0,0,3,14.1,37,37,0,0,0,8.14,11.65,38.73,38.73,0,0,0,12,7.86,37.34,37.34,0,0,0,14.68,2.88,38.32,38.32,0,0,0,26.72-10.76,36.49,36.49,0,0,0,8-11.65,36,36,0,0,0,0-28.34,35.93,35.93,0,0,0-8-11.58,38.54,38.54,0,0,0-26.75-10.67,37.76,37.76,0,0,0-14.61,2.88,39.1,39.1,0,0,0-12.06,7.79,36.28,36.28,0,0,0-8.14,11.58,34.51,34.51,0,0,0-3,14.26Z" transform="translate(-673.67 -312.92)" style="fill: #e20715"/>
    <path d="M2303.47,713.38a62.94,62.94,0,0,1,5.44-26,68.84,68.84,0,0,1,36.4-35.64,69.18,69.18,0,0,1,52.92,0,68.13,68.13,0,0,1,36.19,35.64,63.71,63.71,0,0,1,5.36,26v49.67a14.91,14.91,0,0,1-1.22,6,15.34,15.34,0,0,1-3.36,4.91,16.5,16.5,0,0,1-5.08,3.37,15.62,15.62,0,0,1-6.22,1.26,14.22,14.22,0,0,1-9.44-3.23,15.51,15.51,0,0,1-5.15-8.14,70.56,70.56,0,0,1-17.67,9.54,57.32,57.32,0,0,1-20,3.51,66.64,66.64,0,0,1-26.39-5.26,68.64,68.64,0,0,1-36.4-35.71A63,63,0,0,1,2303.47,713.38Zm31,0a34.73,34.73,0,0,0,2.93,14.1,36.93,36.93,0,0,0,8,11.65,38.08,38.08,0,0,0,11.8,7.86,36.24,36.24,0,0,0,14.45,2.88,36.77,36.77,0,0,0,34.19-22.39,35.38,35.38,0,0,0,2.86-14.1A36,36,0,0,0,2398,687.56a37.59,37.59,0,0,0-11.8-7.79,37.69,37.69,0,0,0-28.9,0,38.48,38.48,0,0,0-11.87,7.79,36.09,36.09,0,0,0-8,11.58,35,35,0,0,0-2.89,14.24Z" transform="translate(-673.67 -312.92)" style="fill: #e20715"/>
    <path d="M2488.56,723.77q-5.8-2.52-12-5.54a52.54,52.54,0,0,1-11.33-7.44,36.73,36.73,0,0,1-8.43-10.6,30.84,30.84,0,0,1-3.3-14.73,37.41,37.41,0,0,1,3.37-16.07,36.27,36.27,0,0,1,9.38-12.34,42.09,42.09,0,0,1,14.23-7.86,57.19,57.19,0,0,1,18.08-2.74,79.5,79.5,0,0,1,11.74.91,57.24,57.24,0,0,1,11.53,2.95,37.62,37.62,0,0,1,9.78,5.33,22.41,22.41,0,0,1,6.61,7.92,16,16,0,0,1,1.42,8.91,13.54,13.54,0,0,1-3,7.22A13.21,13.21,0,0,1,2530,684a10.86,10.86,0,0,1-7.82-.7q-2.84-1.82-5.2-3.23a33.64,33.64,0,0,0-4.86-2.38,27.38,27.38,0,0,0-5.26-1.47,36.56,36.56,0,0,0-6.27-.49q-8.77,0-13.29,2.45a8,8,0,0,0-4.52,7.51,6.15,6.15,0,0,0,1.69,4.42,15.74,15.74,0,0,0,4.59,3.16,48.51,48.51,0,0,0,7,2.67q4.11,1.26,9,2.8a127,127,0,0,1,15.18,5.89,52.31,52.31,0,0,1,12.68,8.21,36.86,36.86,0,0,1,8.7,11.43,35,35,0,0,1,3.24,15.57,36.8,36.8,0,0,1-3.44,15.79,39.7,39.7,0,0,1-9.51,12.84,44.85,44.85,0,0,1-14.5,8.63,51.58,51.58,0,0,1-18.28,3.16,77.29,77.29,0,0,1-13.15-1.19,57.23,57.23,0,0,1-13.49-4.07,51.25,51.25,0,0,1-12.08-7.44,34.34,34.34,0,0,1-8.9-11.29q-3.37-6.73-2.09-12a12.69,12.69,0,0,1,5.33-7.92,14.26,14.26,0,0,1,9.85-2q5.8.71,11.33,6a22.27,22.27,0,0,0,4,4,31.7,31.7,0,0,0,5.4,3.37,31.27,31.27,0,0,0,6.41,2.31,30.31,30.31,0,0,0,7.22.84,24.63,24.63,0,0,0,6.34-.77,19.35,19.35,0,0,0,5.26-2.17,11.72,11.72,0,0,0,3.64-3.37,7.8,7.8,0,0,0,1.35-4.49q0-3-3-5.4a37.41,37.41,0,0,0-7.22-4.56,77,77,0,0,0-8.9-3.72Z" transform="translate(-673.67 -312.92)" style="fill: #e20715"/>
    <path d="M1615.12,636.46a58.57,58.57,0,0,0-14.39-18.63,69.66,69.66,0,0,0-21.29-12.51,73.6,73.6,0,0,0-26.19-4.6h-51.38a16.59,16.59,0,0,0-6,1,15.82,15.82,0,0,0-4.76,2.82,13.33,13.33,0,0,0-3.22,4.23,12,12,0,0,0-1.19,5.27v152.1c0,7.8,6.8,14.12,15.2,14.12s15.2-6.32,15.2-14.12V717.4h36a74.86,74.86,0,0,0,26.26-4.54,68.41,68.41,0,0,0,21.37-12.39,59.38,59.38,0,0,0,14.39-18.5,50.23,50.23,0,0,0,5.25-22.68A51.32,51.32,0,0,0,1615.12,636.46Zm-27.95,34.83a32.64,32.64,0,0,1-7.71,10.05,37.71,37.71,0,0,1-11.56,6.93,39,39,0,0,1-14.17,2.58h-36.59V627.33h36.59a38,38,0,0,1,25.61,9.75,34.63,34.63,0,0,1,7.78,10.24,26.61,26.61,0,0,1,2.87,12,26.89,26.89,0,0,1-2.81,12Z" transform="translate(-673.67 -312.92)" style="fill: #e20715"/>
    <path d="M1862.08,652.42q-4.44-4.33-12.55-4.34h-.3a75.67,75.67,0,0,0-29,5.62,78.56,78.56,0,0,0-16.9,9.52A14.92,14.92,0,0,0,1789,651.39c-8.16,0-14.78,7-14.78,15.53v48.13h.13c-.08,1.36-.13,2.74-.13,4.12V765.1a13.67,13.67,0,0,0,1.35,6,15.17,15.17,0,0,0,3.61,4.76,18.08,18.08,0,0,0,11.87,4.41,15.49,15.49,0,0,0,6.16-1.21,16.36,16.36,0,0,0,5-3.2,15.25,15.25,0,0,0,3.38-4.76,14.26,14.26,0,0,0,1.28-6V718.75a35.65,35.65,0,0,1,3.45-15.5A41.94,41.94,0,0,1,1833,682.07a43,43,0,0,1,16.27-3.1h.3a17.81,17.81,0,0,0,6.54-1.21,18,18,0,0,0,5.41-3.27,15.17,15.17,0,0,0,3.68-4.91,13.9,13.9,0,0,0,1.35-6.11A14.78,14.78,0,0,0,1862.08,652.42Z" transform="translate(-673.67 -312.92)" style="fill: #e20715"/>
    <path d="M2278,686.23a66.65,66.65,0,0,0-12.37-20.7,57.79,57.79,0,0,0-18.59-14,55.64,55.64,0,0,0-46.54,0,58.4,58.4,0,0,0-11.87,7.53,12.32,12.32,0,0,0-23.81,4.48h0v38.87h.61a77.21,77.21,0,0,0-.61,9.24v53.46a15.23,15.23,0,0,0,4.39,10.82,14.72,14.72,0,0,0,4.65,3.19,13.71,13.71,0,0,0,5.5,1.13,13.19,13.19,0,0,0,5.43-1.13,13.43,13.43,0,0,0,4.45-3.19,14.61,14.61,0,0,0,3-4.82,17,17,0,0,0,1-6V711.65a39.56,39.56,0,0,1,2.29-13.54,35.42,35.42,0,0,1,6.29-11,28.14,28.14,0,0,1,9.62-7.3,28.72,28.72,0,0,1,12.31-2.62,27.37,27.37,0,0,1,11.91,2.62,29.38,29.38,0,0,1,9.49,7.16,36.26,36.26,0,0,1,6.41,10.63,39.17,39.17,0,0,1,2.68,13,8.07,8.07,0,0,0-.13,1.7v52.75a15.25,15.25,0,0,0,1.18,6,16,16,0,0,0,3.14,4.82,13.9,13.9,0,0,0,10.21,4.32,13.19,13.19,0,0,0,5.43-1.13,12.73,12.73,0,0,0,4.39-3.19,16.21,16.21,0,0,0,2.94-4.82,16,16,0,0,0,1.11-6V711.59A70.61,70.61,0,0,0,2278,686.23Z" transform="translate(-673.67 -312.92)" style="fill: #e20715"/>
  </g>
</svg>
